<?xml version="1.0" encoding="UTF-8"?>
<svg id="Layer_2" xmlns="http://www.w3.org/2000/svg" viewBox="0 0 162.6 127.1">
  <defs>
    <style>
      .cls-1 {
        fill: #fff;
        stroke: #000;
        stroke-miterlimit: 10;
        stroke-width: 2px;
      }
    </style>
  </defs>
  <g id="Layer_1-2" data-name="Layer_1">
    <path class="cls-1" d="M6.07,103.04s-9.5-28.5-2.5-40.5c0,0,51-11,56-14S92.57,12.54,94.57,2.54c0,0,4-5,6,3s-7,21-7,21l-5,11s26-12,45-33c0,0,9-5,8,7,0,0-30,34-36,37,0,0,32,0,50-10,0,0,8.26-2.75,5.43,6.69-.12.41-.27.85-.43,1.31-4,11-57.18,20-61.09,21,0,0,12.59,6.5,13.59,9.5s-5.26,21.11-9.67,27.5c-4.83,7-9.83,7-9.83,7,0,0-11.5-2.5.5-15.5,0,0,14-18-24-20,0,0-26,26,16,35,0,0,13,0,15,8s-8,9-28,4-47.72-10.72-55-18c-4-4-12-2-12-2Z"/>
  </g>
</svg>