<?xml version="1.0" encoding="UTF-8"?>
<svg id="Layer_2" xmlns="http://www.w3.org/2000/svg" viewBox="0 0 161.15 125.1">
  <defs>
    <style>
      .cls-1 {
        fill: #fff;
        stroke: #000;
        stroke-miterlimit: 10;
        stroke-width: 2px;
      }
    </style>
  </defs>
  <g id="Layer_1-2" data-name="Layer_1">
    <path class="cls-1" d="M92.48,62.54c3.91-1,50.8-20.04,58.09-30,.29-.39.31-.89.43-1.31,2.83-9.45-5.43-6.69-5.43-6.69-17.05,14.85-51.93,23.82-52.29,21.96,7.33.11,39.38-34.45,37-40-4-11-12,2-12,2-20,24-38,32-38,32l7.29-13.96s9-13,7-21-6-3-6-3c-2,10-24,41-29,44S3.57,60.54,3.57,60.54c-7,12,2.5,40.5,2.5,40.5,0,0,8-2,12,2,7.28,7.28,35,13,55,18s30,4,28-4-15-8-15-8c-42-9-13.79-28.54-13.79-28.54,0,0,76.66-14.66,86-28,7-10-8-5-8-5l-57.8,15.04Z"/>
  </g>
</svg>